<svg xmlns="http://www.w3.org/2000/svg" width="64" height="64" viewBox="0 0 64 64"><path d="M46 46a5 5 0 0 0 1.404-9.8 16.964 16.964 0 0 1-.996 1.828 3 3 0 1 1-3.284 3.828 17.072 17.072 0 0 1-1.654 1.264A5 5 0 0 0 46 46zm-28 4a8.961 8.961 0 0 1-5.554-1.918l-.741-.644a1 1 0 0 0-1.313 1.51l.061.052-.001.001a11.003 11.003 0 0 0 17.574-3.468 16.871 16.871 0 0 1-1.935-.588A9 9 0 0 1 18 50zm-8.842-7.359a1.024 1.024 0 0 0-.027-.1A9.013 9.013 0 0 1 15.34 32.4a16.985 16.985 0 0 1-.283-2.002A11.015 11.015 0 0 0 7.36 43.802l.05.235a1 1 0 0 0 1.956-.416zM13 41a5 5 0 0 0 9.53 2.12 17.072 17.072 0 0 1-1.654-1.264 3 3 0 1 1-3.284-3.829 16.964 16.964 0 0 1-.996-1.827A5.002 5.002 0 0 0 13 41zm35.943-10.602c-.006.077-.018.152-.025.228.05-.535.082-1.077.082-1.626a16.951 16.951 0 0 0-1.24-6.384 1.02 1.02 0 0 0-.07-.202l-.54-1.16a1 1 0 1 0-1.813.845l.466 1-.006.005a14.994 14.994 0 1 1-6.832-7.392l.026.015 1.12.62a1 1 0 1 0 .969-1.75l-.508-.28a16.999 16.999 0 1 0-3.554 30.928c-.344.106-.691.203-1.044.288a11.002 11.002 0 1 0 12.97-15.135zM46 50a9 9 0 0 1-8.091-5.055c-.247.091-.498.173-.75.253a17.008 17.008 0 0 0 11.728-14.294 16.991 16.991 0 0 1-.227 1.496A9.001 9.001 0 0 1 46 50zm-3.173-31.76a1 1 0 1 0 2 0 1 1 0 1 0-2 0zM32.596 30.192a5.808 5.808 0 0 0 3.753-1.072 3.747 3.747 0 0 0 1.318-3.085 3.534 3.534 0 0 0-1.2-2.9 5.598 5.598 0 0 0-3.608-.985h-3.7V32H27v2h2.16v2h2.1v-2H35v-2h-3.74v-1.808zm-1.336-6.284h1.459a3.343 3.343 0 0 1 2.11.545 1.995 1.995 0 0 1 .676 1.652 2.047 2.047 0 0 1-.756 1.758 4 4 0 0 1-2.373.563H31.26z"/></svg>