<svg xmlns="http://www.w3.org/2000/svg" width="64" height="64" viewBox="0 0 64 64"><path d="M52 15.1h-.8c-.6 0-1.4-.1-2.1-.2-2.2-.3-4.4-.7-6.5-1.4l-1.5-.6c-1.1-.4-2.1-.9-3-1.4-1.4-.8-2.6-1.6-3.6-2.4-.6-.5-1-.8-1.1-1l-1.2-1.3-1.4 1.1c-.1 0-.2.1-.3.2-.3.2-.6.4-.9.7-1 .7-2 1.4-3 2-.4.3-.9.6-1.3.8-1.2.7-2.2 1.3-3 1.6-.9.4-2.5.8-4.4 1.1-1.3.2-2.8.4-4.2.6-.5.1-1 .1-1.4.2-.2 0-.4 0-.5.1l-1.9.2.1 1.9v.5c0 .4.1.8.1 1.2.1 1.3.3 2.8.5 4.4.6 4.5 1.6 9.1 2.8 13.3C17.2 49.2 23.1 57 32 57c8.9 0 14.8-7.8 18.5-20.4.2-.8.5-1.6.7-2.4l.2-.6c.1-.5-.2-1.1-.7-1.2-.5-.1-1.1.2-1.2.7l-.3 1v.1C46.5 44.2 41.4 55 32 55c-17.6 0-20-37.9-20-37.9s7.7-.7 11-2.1c3.3-1.4 9-5.6 9-5.6s2.9 3.1 8.4 5.3S52 17.1 52 17.1s-.2 3-.9 7.4v.1l-.2 1c-.1.5.3 1.1.8 1.1.5.1 1.1-.3 1.1-.8l.1-.6c.1-.6.2-1.3.3-1.9.2-1.6.4-3.1.5-4.4 0-.5.1-.9.1-1.2v-.5l.1-2.1-1.9-.1zm-1.8 14.5a1 1 0 1 0 2 0 1 1 0 1 0-2 0zM21 22c.6 0 1-.4 1-1s-.4-1-1-1h-6.2l.2 2.2v.3c0 .3.1.6.1.9.1 1 .3 2.1.5 3.3.5 3.4 1.3 6.9 2.3 10.1 3 9.7 7.4 15.6 14.1 15.7 6.7 0 11.2-6 14.1-15.7 1-3.2 1.7-6.6 2.3-10.1.2-1.2.3-2.3.5-3.3 0-.4.1-.7.1-.9v-.3l.2-2.2H26c-.6 0-1 .4-1 1s.4 1 1 1h21s-2.4 28.5-15 28.5S17 22 17 22h4z"/></svg>